<?xml version="1.0" encoding="UTF-8"?>
<svg width="1200pt" height="1200pt" version="1.1" viewBox="0 0 1200 1200" xmlns="http://www.w3.org/2000/svg">
 <path d="m917.45 1162.8c0-2.6172 1.4219-10.582 3.1602-17.691 4.9805-20.379 7.543-39.66 7.5312-56.707-0.011719-16.906-0.94531-20.637-7.7031-30.656-5.7734-8.5664-9.4727-18.355-11.051-29.266-0.78125-5.3945-2.625-13.414-4.1016-17.82-1.4727-4.4062-3.4609-11.918-4.418-16.691-0.95703-4.7734-5.1172-20.699-9.2422-35.387s-7.9961-28.508-8.6016-30.711c-0.95312-3.4727-1.6445-3.9531-5.1836-3.6094-4.5156 0.43359-5.0664-0.43359-9.1211-14.414-5.2461-18.094-9.8008-78.559-10.309-136.87-0.42187-48.617 4.4258-91.789 13.699-121.98 1.4336-4.6602 2.2461-9.0547 1.8125-9.7578-0.97266-1.5742-6.9648-0.34766-14.484 2.9844-3.1133 1.375-8.7578 3.168-12.547 3.9805-3.7891 0.80469-6.9766 2.1797-7.0781 3.0352-0.10156 0.86328-0.023437 13.246 0.16016 27.527 0.28516 21.035 0.78906 27 2.6523 31.379 2.0273 4.7656 2.4023 13.035 3.1523 69.316 0.84375 63.293 0.82422 63.973-2.0156 70.773-1.5742 3.7773-5.1445 10.172-7.9297 14.211-2.7852 4.0391-8.3867 12.18-12.449 18.094s-12.199 16.43-18.082 23.367c-10.941 12.906-22.887 33.566-24.672 42.664-1.5508 7.9062-2.168 9.3477-4.0039 9.3477-9.1992 0 4.8164-32.719 23.492-54.828 5.8555-6.9336 13.414-16.812 16.801-21.953s8.2031-11.75 10.699-14.688 6.3047-9.0312 8.4609-13.543l3.918-8.2031v-54c0-29.703-0.39453-54.395-0.87891-54.879-0.48438-0.49219-1.7109-0.19141-2.7266 0.66016-4.2227 3.5039-4.8516-0.63672-3.2305-21.23 0.98047-12.461 1.2227-29.566 0.65234-46.066l-0.91016-26.246h6.6797c4.3711 0 10.094-1.3086 16.566-3.8867 5.4375-2.1641 12.102-4.3477 14.805-4.8438 6.4648-1.1992 19.641-11.062 23.539-17.641 11.188-18.867 14.371-24.645 19.992-36.262l6.2969-13.016 0.96484-34.719c0.53125-19.094 1.3242-41.301 1.7617-49.348 0.70703-13.016 0.50391-15.152-1.8594-19.363-3.9336-7.0156-11.785-28.965-13.586-37.984-1.2773-6.3984-2.7148-9.0977-7.6289-14.355l-6.0547-6.4727h-17.742c-16.938 0-17.918 0.14844-21.676 3.3125-2.1641 1.8203-4.7305 5.2773-5.707 7.6797-0.97266 2.4023-5.2344 9.1758-9.4648 15.051-10.32 14.328-10.508 14.523-12.199 12.832-1.9141-1.9141 0.37109-6.6758 8.3984-17.508 3.5391-4.7734 7.4336-11.184 8.6562-14.242 1.3633-3.4023 4.1562-6.9023 7.1992-9.0117 4.5586-3.1602 6.4727-3.5117 22.934-4.2305 20.742-0.90234 22.57-0.30078 31.73 10.422 4.0469 4.7383 5.7617 8.2266 6.8984 14.02 0.83203 4.2422 2.6406 10.719 4.0156 14.391 1.375 3.6719 2.8828 8.0273 3.3516 9.6797s1.4102 3.0039 2.0938 3.0039c1.6055 0 1.6055-4.8398 0-7.8438-0.68359-1.2812-2.1445-7.3984-3.2461-13.598-2.7734-15.637-9.1055-27.945-19.363-37.645l-8.1211-7.6797h-41.781l-8.2617 8.4258c-4.707 4.8008-10.762 12.988-14.078 19.027-4.2109 7.6797-10.422 15.48-22.52 28.293-9.1875 9.7305-19.309 21.145-22.492 25.371-5.1953 6.8984-16.02 27.355-18.336 34.652-0.49219 1.5547-1.7812 3.1641-2.8594 3.582-2.293 0.87891-38.566-1.2148-40.375-2.332-0.67188-0.41797-0.95703-6.6289-0.62891-13.82 0.73047-16.051-1.8984-33.164-8.0781-52.609-3.875-12.188-6.1055-16.488-15.953-30.711-12.312-17.785-33.48-40.035-49.07-51.57l-8.6797-6.4258-0.71094-72.852-8.3242-3.9375c-4.5781-2.1641-9.8281-3.9531-11.664-3.9688-7.0078-0.058593-19.148-7.3281-31.379-18.781-7.4062-6.9336-14.5-10.277-26.805-12.629l-10.539-2.0156-89.508 21.703-13.352 8.1367c-32.32 19.691-49.465 28.988-53.461 28.988-2.25 0-4.6641 0.56641-5.3594 1.2539-2.9727 2.9375-24.039 8.3633-41.996 10.82-10.648 1.457-21.383 3.3086-23.848 4.1172-5.9961 1.9648-26.953 20.934-31.902 28.875-4.6016 7.3867-12.457 27.988-15.332 40.223-1.5117 6.4336-1.6484 9.4414-0.5625 12.32 1.2695 3.3633 1.0078 4.2617-2.2539 7.6641-2.8945 3.0195-3.5 4.6211-2.8008 7.4023 0.48828 1.9531 0.26953 5.1914-0.48828 7.1953-0.75781 2.0039-1.7461 14.859-2.1953 28.562l-0.81641 24.914 6.5859 7.5938 21.785-21.473c21.449-21.145 21.949-21.531 32.469-25.242 5.875-2.0703 13.559-5.1992 17.074-6.9492 10.176-5.0625 11.367-2.4336 4.8008 10.582-3.6328 7.1953-4.0664 9.1836-3.4102 15.543 0.4375 4.2344 0.14062 8.457-0.70703 10.074-2.7891 5.3008-24.992 31.082-31.039 36.035-10.957 8.9805-7.1953 14.367 13.953 19.988 14.645 3.8906 29.117 10.836 40.93 19.633 9.9453 7.4062 11.633 12.602 10.906 33.562-0.36328 10.488-1.2656 17.852-2.5 20.414-1.5742 3.2695-5.9844 6.0273-23.965 14.996l-22.031 10.992h-10.684c-10.332 0-10.969-0.16797-19.363-5.6602l-8.6797-5.6797-0.40625-7.082c-0.33203-5.8203-0.8125-7.0078-2.6719-6.6562-1.3281 0.25391-3.0195 2.8125-4.0938 6.1992-1.582 4.9883-1.5508 6.6211 0.21094 12.008 1.3086 4 2.6836 6.043 3.832 5.7031 9.9531-2.9609 12.812-0.38281 5.1797 4.6641-5.0703 3.3555-6.9336 7.4414-4.1758 9.1445 0.66797 0.40625 4.0547-0.45703 7.5273-1.9531 6.2227-2.668 11.898-2.4727 10.945 0.37109-0.53125 1.5977-1.6992 2.2734-9.6758 5.625-5.6094 2.3555-11.352 9.5508-11.352 14.227 0 1.4609-2.0859 6.9805-4.6367 12.262-5.543 11.473-10.055 34.484-10.055 51.266 0 12.246 0.75781 14.566 13.535 41.484 3.7422 7.8789 8.207 17.332 9.9297 21.004 1.7188 3.6719 6.457 12.387 10.523 19.363 4.0703 6.9766 8.8125 15.711 10.543 19.41 3.5742 7.6484 13.934 22.562 24.539 35.336 3.9648 4.7734 11.961 14.387 17.766 21.363 15.977 19.195 30.797 38.688 34.516 45.402 1.832 3.3047 4.6523 7.8125 6.2656 10.016 7.4062 10.105 8.293 13.629 9.7891 39.023 1.0625 18.016 2.0781 25.855 3.9688 30.652 4.4219 11.219 10.77 23.539 13.781 26.746 5.0742 5.4023 21.508 14.793 33.441 19.109 6.3438 2.293 12.246 5.0312 13.117 6.0781 5.8398 7.0352 56.016-6.3281 84.715-22.566 12.09-6.8398 35.684-29.609 40.457-39.043 3.6992-7.3086 6.5977-9.7227 7.8281-6.5156 1.6562 4.3125-5.9297 15.59-20.609 30.641-12.223 12.535-16.113 15.621-26.523 21.043-16.117 8.3945-33.68 15.098-52.895 20.188-8.6289 2.2852-15.691 4.8164-15.691 5.625 0 1.4805 9.8164 10.25 18.746 16.75 5.8164 4.2305 15.16 16.59 13.984 18.492-1.7266 2.793-4.6016 1.1641-9.3125-5.2461-2.668-3.6328-7.0742-7.9766-9.793-9.6523-2.7188-1.6758-8.4609-6.2773-12.758-10.219-4.2969-3.9453-10.605-8.3867-14.02-9.8672-3.4141-1.4844-7.4102-3.7461-8.8789-5.0273s-5.5195-3.3945-9-4.6914c-5.2227-1.9453-6.6914-2.0547-8.4102-0.625-3 2.4883-1.8945 7.0508 1.9219 7.9453 2.5703 0.60156 4.2422 3.2539 8.4531 13.41 2.8867 6.9609 7.2578 18.742 9.7109 26.184 5.4375 16.465 10.941 26.605 20.281 37.363 6.957 8.0078 8.8633 12.535 5.2773 12.535-3.3047 0-17.812-17.938-23.242-28.742-2.9453-5.8555-6.6445-14.996-8.2266-20.305-6.1953-20.809-14.613-36.41-19.652-36.41-0.92969 0-3.9453 4.0547-6.7031 9.0117-2.7578 4.957-8.1289 13.82-11.938 19.695-9.6523 14.898-15.855 26.5-19.871 37.172-5.0234 13.355-8.4844 19.578-10.891 19.578-3.0547 0-1.9219-4.6992 5.1758-21.469 5.75-13.59 15.547-31.41 24.133-43.898 7.457-10.844 14.27-24.414 14.27-28.414 0-2.8477 0.75781-4.1445 2.7266-4.6602 4.1289-1.0781 2.6367-3.1641-6.6953-9.3438-13.43-8.8984-16.523-12.672-24.109-29.418l-6.9922-15.438-3.1562-51.633-6.0469-9.0273c-3.3242-4.9688-7.6719-11.734-9.6562-15.039-4.2305-7.043-22.086-30.293-33.531-43.66-24.281-28.355-35.566-43.531-41.996-56.457-4.9375-9.9297-10.738-20.582-15.859-29.133-2.332-3.8867-4.2383-7.3203-4.2383-7.6289 0-0.3125-3.957-8.8398-8.7969-18.969-15.465-32.371-15.523-32.551-15.523-48.422 0-17.73 4.3242-40.469 9.7305-51.152 3.4102-6.7344 3.8945-9.1133 3.8242-18.695-0.050781-6.0391-0.51562-15.281-1.043-20.543l-0.96094-9.5664-9.9258-10.992c-9.6055-10.637-9.9531-11.258-10.789-19.34-0.56641-5.4609-1.9141-9.8242-3.8906-12.605-1.6641-2.3398-5.1055-9.1602-7.6484-15.156-3.9414-9.3047-4.5469-12.09-4.1211-19.016 0.54297-8.8242 2.0078-12.191 15.504-35.609 4.5469-7.8906 8.2656-15.18 8.2656-16.195s-0.89844-2.5938-1.9961-3.5039-2.6953-3.9883-3.5508-6.8398c-1.5664-5.2227-2.918-6.3594-4.5078-3.7812-1.6484 2.6641-4.3242-1.3477-5.1914-7.7852-2.3125-17.156-2.1133-16.605-5.6172-15.727-4.5391 1.1406-5.4141-2.1719-2.0703-7.8398 2.9844-5.0547 4.9141-15.348 3.2734-17.453-0.57031-0.73437-2.2422-1.9961-3.7109-2.8086-3.7461-2.0625-4.0703-6.6133-0.67578-9.4844 3.0859-2.6133 10.691-15.137 10.691-17.605 0-0.94922-1.2148-1.2266-3.1914-0.73047-5.0117 1.2578-5.4102-1.7266-0.91797-6.8438 6.1758-7.0352 5.2891-9.75-2.0508-6.25-3.5703 1.7031-4.8984 1.8203-6.1719 0.54688-1.2734-1.2734-1.2695-2.1914 0.011718-4.2578 0.89844-1.4492 2.3633-3.8125 3.2539-5.2461 2.5859-4.1719 0.19141-4.7031-4.2695-0.95312-3.918 3.2969-8.0312 3.5547-8.0312 0.49609 0-0.79297 0.96484-5.293 2.1445-9.9961 2.4688-9.8398 1.2031-13.211-3.3984-9.0469-3.4062 3.082-6.7578 1.793-6.7578-2.6016 0-3.0234-0.31641-3.2578-2.6992-1.9844-1.4844 0.79297-3.2852 1.082-4.0078 0.63672-0.72266-0.44922-1.3203-7.4766-1.3398-15.75-0.011719-8.2188-0.47656-17.047-1.0234-19.617-0.54688-2.5703-0.38281-14.582 0.36719-26.695 1.1367-18.465 1.7031-22.086 3.5-22.426 1.1797-0.22266 3.1445 1.125 4.3711 2.9922 3.457 5.2773 4.6758 4.1016 5.1055-4.9258 0.39453-8.2773 0.42969-8.3438 6.0742-11.449 4.6484-2.5586 5.6758-3.8242 5.6758-6.9844 0-4.2578 3.0352-6.625 8.5078-6.625 2.793 0 3.4102-0.71094 3.7617-4.3398 0.40625-4.2305 0.59375-4.3516 7.4297-4.7422 7.1367-0.41016 8.2188-1.1914 5.4648-3.9453-3.0273-3.0273 1.2656-5.6641 9.2109-5.6641 8.0156 0 7.8984 0.24609 4.25-8.8164-2.6289-6.5312-1.0547-8.543 6.6914-8.543 5.2305 0 6.9688-0.55859 8.0547-2.582 2.1172-3.957 1.7266-5.2656-2.8086-9.4062-4.8477-4.4297-4.4492-7.5547 1.1289-8.7812 7.1016-1.5586 7.2852-1.7031 5.7891-4.4961-3.25-6.0742-2.0586-7.0664 7.2852-6.0664 7.1484 0.76562 8.6797 0.58594 8.6797-1.0195 0-1.0742-1.2266-3.0625-2.7305-4.4219-4.918-4.4492-2.9062-7.6523 6.7344-10.711 8.5117-2.6992 8.6914-2.8555 9.3477-8.0117l0.66797-5.2578 7.3438-0.69922c5.6914-0.54297 8.8711-1.8086 14.121-5.6328 3.7266-2.7148 7.4492-6.4141 8.2734-8.2227 1.0469-2.3008 3.0781-3.6172 6.75-4.3828 4.0234-0.83594 6.3203-2.4961 9.8086-7.0859 2.5039-3.2969 6.4297-7.2578 8.7227-8.8047s15.43-6.5391 29.191-11.094c13.762-4.5547 26.281-8.9062 27.82-9.6641 1.5391-0.75781 5.2031-4.0469 8.1406-7.3125 4.8711-5.4102 6.5117-6.25 18.695-9.5742 12.465-3.3984 15.176-3.6445 40.727-3.6992 17.816-0.035156 29.809-0.66406 34.34-1.793 6.5352-1.6289 7.2227-1.5547 11.121 1.2227 4.5742 3.2578-1.6445 3.2109 61.84 0.46484l19.168-0.83203 10.543 4.7266c15.188 6.8086 20.938 8.043 32.668 7.0195 12.539-1.0938 25.117 2.5156 32.895 9.4297 9.3672 8.332 36.289 19.582 51.809 21.648 19.547 2.6016 41.098 14.844 47.422 26.934 2.5352 4.8438 17.324 22.098 21.473 25.047 1.3008 0.92578 3.6445 5.1289 5.207 9.3477 3.3164 8.9336 11.223 23.848 14.676 27.695 1.3203 1.4688 6.0391 7.9062 10.488 14.305 8.5977 12.367 11.961 20.293 13.199 31.094 0.58203 5.0898 1.8594 7.9023 5.3711 11.832 5.3242 5.957 10.984 17.367 11.023 22.219 0.023437 3.6602 2.6406 12.73 5.7656 20.031 1.1016 2.5703 2.6875 11.883 3.5273 20.699 0.87891 9.207 3.2188 22.07 5.5 30.234 3.6328 12.996 3.9883 16.141 4.1523 36.723 0.17188 21.348 0.33594 22.68 3.1914 25.848 4.9844 5.5234 12.348 22.77 13.898 32.551 0.80078 5.0508 2.332 10.879 3.4062 12.953 2.8242 5.4648 2.7852 50.609-0.050782 58.652-1.5664 4.4375-2.0039 12.617-2.0039 37.418v31.742l-6.6641 14.273c-6.082 13.027-9.4336 19.129-20.172 36.746-3.2969 5.4102-3.5898 6.8789-2.9414 14.754 0.69141 8.3477-2.7617 33.203-6.3008 45.359-1.2539 4.3008-5.4492 38.695-7.9766 65.406-1.3711 14.477-7.3984 29.66-14.051 35.387l-4.6523 4.0078 1.3867 34.719c2.1914 54.82 8.7617 105.04 11.965 91.461 0.42969-1.8242 1.7188-3.4961 2.8633-3.7188 2.3359-0.44531 6.0156 10.496 15.832 47.121 3.1484 11.75 10.145 33.223 15.547 47.719 5.4023 14.496 9.8203 26.766 9.8203 27.27 0 0.50391 3.0742 7.7227 6.8359 16.039l6.8359 15.121-1.457 28.383c-1.5391 29.98-3.2148 43.105-8.1406 63.77-4.0156 16.848-3.707 16.023-6.0312 16.023-1.4531 0-2.043-1.375-2.043-4.7617zm-569.43-568.73c12.898-6.2812 21.312-11.199 22.648-13.238 1.3984-2.1367 1.9844-5.4492 1.7148-9.7031l-0.41016-6.457-18.027 0.12891c-9.9141 0-20.145 0.82031-22.734 1.6719-2.8945 0.96094-9.0547 5.9297-15.996 12.906-7.5586 7.5977-12.289 11.348-14.32 11.348-5.1172 0-3.4414 3.6602 3.957 8.6445 6.0273 4.0586 8.0742 4.707 14.82 4.707 7.0234 0 9.9414-1.0312 28.348-9.9961zm-68.254-8.0859c4.832-11.566 29.5-34.285 42.387-39.031 5.3125-1.957 12.008-2.8047 26.766-3.375 10.824-0.42188 20.262-1.1172 20.973-1.5625 2.4844-1.5352-0.27734-4.7461-9.0781-10.559-13.105-8.6562-20.746-12.137-35.363-16.105l-13.137-3.5703-7.2305 5.5742c-3.9766 3.0664-7.2305 6.0117-7.2305 6.543 0 0.52734-3.8906 3.8203-8.6445 7.3125-9.5977 7.0469-14.781 14.383-19.461 27.547-1.6758 4.7188-3.8516 9.5312-4.832 10.691-3.1797 3.7617-1.9492 7.8398 4.4102 14.641 3.4062 3.6406 6.7031 6.6211 7.3281 6.6211s2.0234-2.1289 3.1094-4.7266zm750.14 525.17c-0.75391-0.92578-2.0703-4.375-2.9297-7.6797-1.8789-7.2227-11.914-25.371-14.031-25.371-0.82812 0-8.082-4.875-16.121-10.828-8.0391-5.957-19.422-13.602-25.297-16.988-16.305-9.3984-31.586-26.152-43.441-47.625-2.4336-4.4062-7.9766-11.766-12.316-16.355-7.582-8.0195-8.793-10.863-5.1367-12.082 2.5039-0.83984 17.051 15.281 21.457 23.766 10.477 20.184 26.328 37.828 42.246 47.027 5.8008 3.3555 16.559 10.531 23.902 15.945 7.3438 5.418 14.957 10.559 16.922 11.418 4.6133 2.0273 13.395 16.785 17.52 29.438 1.7344 5.332 2.8594 9.9883 2.4961 10.348-1.1992 1.1992-3.8711 0.68359-5.2617-1.0078zm-611.62-172.93c-0.77734-2.0195-1.7969-5.7734-2.2617-8.3438-1.7188-9.4688-10.441-33.109-17.25-46.738-13.398-26.828-23.414-40.688-48.25-66.75-14.293-15-19.828-24.133-22.59-37.27-1.1172-5.3125-2.7109-10.922-3.5391-12.473-1.9062-3.5586-0.83984-24.672 1.4609-28.969 3.082-5.7617 12.723-17.434 14.398-17.441 3.1133 0 1.6875 5.707-2.7969 11.207-6.2617 7.6797-7.082 9.6719-8.0234 19.5-0.64453 6.7031-0.22656 10.609 1.8242 17.145 1.4609 4.6562 2.6562 9.8164 2.6562 11.473 0 6.0742 8.2266 19.625 16.977 27.953 4.7344 4.5078 11.395 11.797 14.809 16.203 3.4102 4.4062 8.6914 10.715 11.73 14.02 7.0312 7.6406 17.734 24.773 26.695 42.73 12.414 24.871 22.867 61.426 17.566 61.426-1.0977 0-2.6328-1.6523-3.4102-3.6719zm202.72-11.504c0-1.0078 2.1445-8.0625 4.7617-15.691 2.6211-7.625 5.9766-18.074 7.4609-23.215 1.4844-5.1406 4.5-15.301 6.7031-22.578 2.2031-7.2773 5.9922-21.699 8.418-32.047 4.668-19.887 11.957-45.52 16.738-58.875 2.6016-7.2656 2.793-9.75 2.0664-26.707-0.88672-20.641-2.0312-29.438-7-53.887-2.4297-11.953-2.9492-16.902-1.8906-17.961 2.5586-2.5625 4.1719 0.76953 7.375 15.25 5.1133 23.125 7.4688 42.344 7.457 60.859-0.011718 15.23-0.45312 18.848-3.25 26.707-4.9062 13.777-12.07 39.262-16.07 57.16-1.9688 8.8125-5.2812 21.434-7.3555 28.043-2.0781 6.6094-4.7852 15.926-6.0195 20.699-2.8555 11.043-11.102 35.59-13.57 40.395-1.9609 3.8125-5.8281 5.0352-5.8281 1.8477zm-30.711-3.2578c0-2.6367 6.8125-14.051 9.3047-15.59 0.85547-0.52734 4.7305-5.2578 8.6094-10.508 5.7148-7.7383 8.2344-13.027 13.277-27.898 8.3672-24.68 9.1992-33.977 8.2891-92.734-0.67578-43.625-0.9375-47.699-3.5508-54.816-1.5547-4.2305-3.1445-9.1016-3.5352-10.828-1.25-5.5156 3.7969-2.8281 7.1523 3.8047 5.5391 10.953 6.168 19.699 5.6328 78.113l-0.5 54.75-7.2227 21.367c-7.2891 21.559-11.426 29.176-22.133 40.727-2.3828 2.5703-5.9141 7.2266-7.8438 10.348-3.6133 5.8398-7.4844 7.5273-7.4844 3.2656zm-160.09-35.543c-4.6914-1.7812-9.293-4.0352-10.223-5.0117-0.93359-0.97266-6.6367-8.9805-12.68-17.793-6.043-8.8125-14.789-21.172-19.441-27.469-7.6211-10.312-8.3789-11.914-7.6836-16.219 0.72266-4.457 0.50781-4.832-3.2148-5.6484-6.7695-1.4883-9.5312-5.7969-11.246-17.547-1.8906-12.965-1.2305-15.836 5.1328-22.367 5.9961-6.1562 38.945-22.492 51.547-25.562 4.5781-1.1172 13.734-3.5156 20.344-5.3359 13.555-3.7344 27.449-7.1719 46.113-11.406 11.359-2.5781 15.672-2.832 40.059-2.3672 30.266 0.57422 32.773 1.1172 55.523 11.867 12.859 6.0742 18.301 11.695 21.293 21.984 2.668 9.1836 1.8984 16.594-3.6016 34.641-6.8633 22.523-18.332 43.371-31.402 57.086-8.1016 8.5-28.273 18.777-48.977 24.945-19.949 5.9453-35.762 8.1602-63.652 8.918-17.969 0.49219-19.977 0.30078-27.895-2.7148zm53.93-4.7383c25.512-3.082 46.43-8.9453 64.496-18.078 11.27-5.6953 25.629-16.98 25.641-20.152 0.003906-0.66016 2.4023-4.8047 5.3359-9.2109s5.3359-9.3438 5.3359-10.969c0.003907-1.625 1.2305-6.0625 2.7266-9.8594s2.5234-7.5039 2.2773-8.2344c-0.24219-0.73047-4.9219 3.4883-10.398 9.3711-10.305 11.078-9.5273 10.582-42.738 27.078-4.0742 2.0234-17.594 7.1797-30.043 11.457l-22.637 7.7773-43.32 1.0312-8.7695-4.9062c-10.758-6.0156-24.926-19.023-30.957-28.418-3.9844-6.207-5.0195-7.0117-9.0547-7.0117-2.5039 0-4.8789 0.52734-5.2773 1.1641-0.39844 0.63672 1.3906 3.9414 3.9766 7.3242 2.5859 3.3867 11.266 15.621 19.289 27.184l14.59 21.031 8.3984 2.918c10.789 3.75 23.172 3.8711 51.129 0.50391zm-28.711-27.332c0-0.32422-0.60156-0.96094-1.3359-1.4141-0.73438-0.44531-1.3359-0.19141-1.3359 0.58984s0.60156 1.4141 1.3359 1.4141 1.3359-0.26563 1.3359-0.58984zm7.7656-3.8516c0.30469-2.5547-0.18359-3.5703-1.7109-3.5703-2.5273 0-4 3.1484-2.8594 6.1211 1.207 3.1445 4.0859 1.5352 4.5703-2.5508zm12.664 2.6562c1.1953-3.1094-1.0703-10.859-3.2969-11.289-4.4453-0.86328-8.8828 8.8672-5.5625 12.188 1.5977 1.5977 8.1523 0.9375 8.8555-0.89844zm12.043-2.2148c0.60156-0.53906 0.90234-3.3164 0.66797-6.1719-0.38672-4.7266-0.79297-5.2188-4.625-5.5898-4.0938-0.39453-4.2109-0.25391-4.6797 5.6523-0.26562 3.332-0.27734 6.668-0.023438 7.4141 0.46484 1.4023 6.7148 0.45703 8.668-1.3086zm18.652-10.094c-0.51953-6.8242-1.3516-7.6758-6.6406-6.8203-6.9102 1.1172-8.625 4.6992-5.8047 12.113l1.2891 3.3906 5.7227-2.4648c4.9531-2.1367 5.6836-2.9727 5.4375-6.2188zm14.906-2.0586c5.2031-4.9531-1.2344-13.043-8.2891-10.414-4.7383 1.7656-6.5312 7.0234-3.8086 11.176 1.8047 2.75 2.9336 3.2422 5.8633 2.5625 1.9961-0.45703 4.8047-1.9609 6.2344-3.3242zm19.133-7.7266c6.4023-3.2656 6.8359-4.7109 2.7344-9.0781-3.6602-3.8945-4.5078-3.8633-10.016 0.33594-6.4141 4.8906-9.1797 9.4336-7.1992 11.824 1.8164 2.1875 5.8203 1.3398 14.48-3.082zm17.066-7.4141c2.4688-1.8281 2.4805-2.0352 0.25391-4.293-2.1016-2.1328-2.543-2.1641-4.3906-0.32422-1.1602 1.1641-1.6797 3.0234-1.1914 4.293 1.0508 2.7383 1.9844 2.793 5.3242 0.32422zm-134.8-5.0312c2.3008 3.0938 6.375 0.61328 6.9492-4.2227l0.42578-3.5625 3.3125 2.6055c3.125 2.4609 3.6992 2.4922 10.258 0.57422 3.8203-1.1172 8.6289-2.8438 10.688-3.8477 2.0586-1.0078 4.6172-1.4883 5.6836-1.0781 3.2031 1.2305 11.238-0.85156 14.016-3.6289 1.4297-1.4297 2.5977-4.0977 2.5977-5.9336v-3.3398l2.6914 2.6914c1.9688 1.9688 3.6719 2.4648 6.3438 1.8438 5.8789-1.3633 9.6602-4.3516 9.6602-7.6367 0-1.6719 0.66016-3.6992 1.4688-4.5078 1.0508-1.0547 1.0664-2.7461 0.0625-5.9414-0.77344-2.4609-2.1133-7.3242-2.9805-10.816-1.2383-4.9961-2.1562-6.3438-4.3164-6.3438-3.7031 0-8.9258 5.1172-8.9258 8.7461 0 1.6172-0.95703 3.7383-2.1289 4.7109-1.5039 1.2461-1.9297 3.1602-1.4492 6.5078 0.375 2.6055 0.21875 5.9414-0.34375 7.4102-1.0234 2.6719-1.0234 2.6719-1.7773 0-0.41406-1.4688-1.1406-5.5156-1.6133-8.9922-0.58594-4.3125-1.7773-6.9648-3.7461-8.3477-3.9062-2.7344-8.4453-2.5508-10.566 0.43359-0.96094 1.3516-3.0625 3.1562-4.6719 4.0117-2.1289 1.1289-3.0391 3.0156-3.3398 6.9102-0.53906 7.0273-2.4688 7.3125-4.332 0.63672-1.3711-4.9062-1.9023-5.375-6.5547-5.7617-7.3789-0.61328-8.8867 1.2969-8.8867 11.266 0 4.6836-0.48828 8.5156-1.0898 8.5156-0.59766 0-2.4297-2.3867-4.0703-5.3008-1.6406-2.9141-3.5781-5.6719-4.3086-6.125-2.4258-1.4961-5.2188 2.332-5.2891 7.25-0.0625 4.793-0.089844 4.8125-2.1641 1.8398-1.1523-1.6523-3.0039-3.0039-4.1094-3.0039-2.7734 0-1.5156 7.1875 2.9727 16.984 3.2031 6.9961 3.6133 7.3867 5.6445 5.3516 2.0312-2.0312 2.3164-2.0273 3.8867 0.13281zm-4.0703-10.016c-0.72656-1.9023-0.57031-2.0586 0.74609-0.74219 0.91406 0.91016 1.3242 1.9805 0.91406 2.3945-0.41016 0.40625-1.1562-0.33594-1.6602-1.6445zm-39.117-10.93c-0.99219-14.465-0.16016-17.062 5.9922-18.773 2.75-0.75781 9.9922-1.3906 16.102-1.3945 6.1055 0 12.352-0.68359 13.871-1.4883 2.2422-1.207 26.406-9.8633 55.809-20.004 2.5703-0.88672 8.1484-3.0664 12.395-4.8438 21.266-8.9102 26.141-10.043 47.027-10.949 17.352-0.75781 19.527-1.0938 16.27-2.4922-5.8047-2.5078-45.91-2.1719-58.332 0.49219-14.145 3.0234-29.422 6.7578-43.398 10.609-6.6094 1.8203-15.766 4.2227-20.344 5.3359-12.855 3.1289-45.789 19.504-50.871 25.293-4.7773 5.4414-4.7031 5.0078-2.8086 16.695 1.5273 9.4141 2.9844 12.062 6.6289 12.062 2.1445 0 2.3086-1.0547 1.6602-10.539zm135.18-5.1719c3.8125-2.793 8.6758-12.191 8.6758-16.77 0-4.8086-4.6914-14.207-8.1602-16.352-2.3711-1.4648-17.227 14.383-17.164 18.316 0.078125 4.8359 2.9492 8.9688 8.7148 12.508 5.8828 3.6133 6.0586 3.6641 7.9336 2.293zm27.238-10.465c3.1367-3.9883 4.793-11.102 3.6445-15.664-0.5-1.9922-2.7539-4.0195-6.1992-5.5703l-5.4102-2.4414-4.6328 4.4883c-6.1602 5.9727-6.1094 10.332 0.19922 17.316 5.6289 6.2305 8.6172 6.6797 12.398 1.8711zm58.887-8.3672c0-4.6836-0.76562-8.6875-1.9609-10.27-1.793-2.375-1.9609-1.9141-1.9844 5.418-0.011719 4.4062 0.33594 9.3555 0.77734 11 1.4023 5.2305 3.168 1.8008 3.168-6.1523zm-40.152 4.5977c2.6719-2.8438 2.9297-4.0703 2.1055-10.047-0.79297-5.7695-1.5469-7.125-4.9336-8.875-3.6641-1.8945-4.2109-1.875-6.5469 0.23828-1.9219 1.7383-2.5508 4.1211-2.5508 9.6758 0 11.473 5.6211 15.719 11.926 9.0078zm19.379-3.7344c2.9648-4.2305 2.5703-9.6641-1-13.816-2.9414-3.4219-3.1797-3.4727-5.4375-1.2188-1.4258 1.4258-2.0781 3.4805-1.6523 5.1836 0.39062 1.5547 0.1875 3.6641-0.44531 4.6914-1.6133 2.6055 1.1562 8.1211 4.0742 8.1211 1.3086 0 3.3164-1.3359 4.4609-2.9688zm36.379 18.129c-0.50391-0.50391-0.91797-5.8594-0.91797-11.902 0-44.422-10.051-72.59-35.633-99.871-26.484-28.246-48.598-44.41-62.824-45.934-7.6719-0.81641-10.41-2.543-8.2266-5.1719 2.9609-3.5664 17.055-0.13281 29.762 7.332 18.293 10.691 54.238 46.074 64.613 63.605 11.902 20.105 18.238 48.539 17.387 78.008-0.37109 12.844-1.4922 16.598-4.1562 13.934zm-255.41-75.105c-7.3984-4.5117-9.5352-8.5625-10.547-19.992-0.80859-9.1484-0.57031-11.195 1.8672-15.973 1.5352-3.0117 4.0781-6.6719 5.6484-8.1367 1.5703-1.4609 3.9102-5.5391 5.2031-9.0664 1.293-3.5234 4.4688-11.516 7.0547-17.758 4.2305-10.207 12.926-44.422 12.926-50.855 0-4.2578-3.0781-2.918-10.246 4.4531-12.516 12.871-37.59 55.148-42.625 71.871-3.3906 11.254-7.2188 32.172-7.2188 39.441 0 6.457-0.29297 7.1992-2.8477 7.1992-2.7656 0-2.8281-0.38281-2.1016-13.02 1.0742-18.684 6.1328-36.801 15.379-55.082 17.484-34.574 38.164-61.844 48.5-63.953l4.4961-0.91016 0.375-16.945c0.32812-14.82-0.050781-18.398-2.9766-28.496-1.8398-6.3516-5.5508-16.012-8.2461-21.461-3.5703-7.2266-4.5-10.312-3.4258-11.387 3.6055-3.6094 10.848 9.6953 17.508 32.168 4.8008 16.203 4.9844 21.719 1.4766 44.227-5.1445 33-12.5 61.078-19.762 75.445-4.3906 8.6836-5.582 22.387-2.4727 28.398 2.6758 5.1719 2.7695 8.3242 0.25391 8.3242-2.7188 0-7.4336-7.1172-7.4336-11.223 0-1.9062-0.58203-3.4648-1.2891-3.4648-2.5742 0-4.0547 5.3711-4.0547 14.73 0 8.9805 0.25391 9.8047 4.1484 13.441 2.8906 2.6992 5.5195 3.8711 8.6797 3.8711 5.0664 0 5.4961-0.73047 2.418-4.1289-5-5.5234 8.1602-5.9492 14.227-0.45703 2.3828 2.1562 2.1523 5.9258-0.35938 5.9258-0.72266 0-2.8438 1.207-4.7109 2.6719-4.4414 3.4961-14.234 3.5664-19.844 0.14453zm59.809-8.4219c-0.88281-0.88672-1.6016-3.2148-1.6016-5.1875 0-2.7617 2.0078-5.2969 8.7891-11.086 4.832-4.125 10.09-7.7734 11.684-8.1055 20.91-4.3633 32.43-4.6523 37.02-0.9375 1.9102 1.5469 2.7305 3.2656 2.2109 4.6289-0.75 1.9531-1.2969 1.9727-5.5195 0.20312-5.418-2.2617-11.922-2.4922-19.875-0.69531-3.0781 0.69531-7.7031 1.6211-10.273 2.0547-2.9727 0.50391-7.0742 3-11.27 6.8555-5.7656 5.3047-6.3945 6.3906-5.0078 8.6094 0.87109 1.3984 1.5859 3.1523 1.5859 3.8945 0 1.8867-5.7969 1.6992-7.7461-0.23828zm65.258-20.316c-1.2695-1.5312-0.35938-2.8125 4.8008-6.75 8.6133-6.5742 11.109-10.719 11.121-18.445 0.011719-8.0977-5.3477-19.219-10.141-21.039-6.5078-2.4727-14.695-1.5508-19.098 2.1523-2.2461 1.8906-4.6953 3.0547-5.4453 2.5898-2.6914-1.6641-1.2812-5.9023 2.9766-8.9375 5.5547-3.9609 19.492-4.2773 25.742-0.58984 11.145 6.582 16.223 28.145 9.168 38.914-2.2383 3.418-14.758 13.992-16.562 13.992-0.54688 0-1.7031-0.85156-2.5664-1.8906zm347.96-100.5c-0.5-0.50391-0.54297-10.566-0.089843-22.367 0.93359-24.512-0.11328-29.465-8.125-38.328-4.418-4.8906-6.1055-10.797-3.5352-12.383 1.6641-1.0273 12.121 12.25 15.152 19.238 2.168 4.9922 2.6211 9.2344 2.6953 25.035 0.050781 10.465 0.375 19.027 0.73047 19.027 0.35547 0 4.3516-3.457 8.8867-7.6758 4.5312-4.2227 9.8867-8.5391 11.895-9.5938 3.2188-1.6875 3.9023-1.668 5.7461 0.17969 1.8984 1.8984 1.3945 2.5547-5.4688 7.1133-4.1602 2.7617-9.3477 7.2383-11.527 9.9531-2.1797 2.7148-6.2773 6.2344-9.1055 7.8242-5.707 3.207-5.9531 3.2734-7.2461 1.9805zm-350.73-29.855c-6.7695-1.3711-12.402-6.6484-11.758-11.016 0.62891-4.2539 3.3789-4.1953 5.6094 0.12891 2.4336 4.707 5.9766 5.6055 22.121 5.6055 11.211 0 12.117-0.23047 24.871-6.4883 7.2773-3.5664 16.449-9.0352 20.379-12.152 4.7344-3.7539 7.5898-5.2188 8.4688-4.3398 3.6602 3.6602-7.2617 12.559-27.586 22.488-12.48 6.0977-14.023 6.5156-24.703 6.75-6.2656 0.14062-14.098-0.29688-17.402-0.96094zm397.93-5.8672c0-1.0508 1.793-4.8086 3.9844-8.3438 7.4258-11.992 10.703-24.48 10.703-40.781 0-10.547-0.57031-15.625-2.0859-18.551-2.3672-4.5781-2.1094-9.8594 0.48438-9.8594 0.95703 0 3.207 3.6055 5 8.0117 6.7031 16.453 3.3438 42.121-8.2617 63.094-3.2148 5.8086-5.4102 8.3438-7.2227 8.3438-1.4336 0-2.6055-0.85938-2.6055-1.9141zm14.871-1.207c-1.0898-1.3125-0.22266-3.7148 3.4961-9.6523l4.9453-7.9062 1.1289-23.574c1.0859-22.672 1.0195-23.789-1.75-29.215-2.1797-4.2734-2.5-6.0039-1.3242-7.1484 1.1641-1.1328 2.5508-0.33984 5.5391 3.1641l3.9844 4.6719-0.44531 25.371c-0.40625 23.156-0.71094 25.895-3.457 31.379-6.6445 13.262-9.3906 16.188-12.113 12.906zm-474.27-14.574c-3.7305-6.043-4.3594-9.2305-3.6836-18.59 0.42188-5.8594 1.2734-8.6406 3.0234-9.9219 3.7539-2.7461 4.5195-1.2109 3.7344 7.4766-0.50781 5.5938-0.039062 10.203 1.5703 15.305 3.2773 10.422 0.42188 13.941-4.6445 5.7305zm46.785-7.7227c0-13.738 15.141-27.965 29.82-28.02 7.5977-0.023438 10.801-2.0938 5.4961-3.5391-13.738-3.75-26.848 1.2656-33.035 12.637-4.6211 8.4922-7.2461 10.82-8.5 7.543-1.4023-3.6523 5.918-16.387 11.926-20.734 2.8555-2.0664 7.3438-4.4688 9.9766-5.3398 6.8594-2.2617 20.715-0.73828 31.727 3.4922 5.1406 1.9766 13.555 4.0977 18.695 4.7109 5.1406 0.61719 10.945 1.5078 12.898 1.9844 2.75 0.66797 7.7031-1.1797 22.031-8.2422 14.922-7.3516 19.984-10.605 26.277-16.898 4.2852-4.2852 8.4922-7.5586 9.3477-7.2734 3.168 1.0547 1.3672 5.0742-5.3945 12.031-5.6445 5.8086-10.855 9.082-27.758 17.445-15.266 7.5508-21.121 11.121-21.988 13.406-1.125 2.957-2.0195 3.1562-18.312 4.0781-19.582 1.1055-33.617 4.5938-48.352 12.012-11.957 6.0195-14.848 6.1602-14.848 0.70703zm92.422-4.7617c-3.5898-2.6523-0.57812-4.4102 9.8008-5.7188 5.1016-0.64062 11.461-2.082 14.129-3.2031 6.2344-2.6094 27.191-4.4609 28.398-2.5078 1.3242 2.1445-3.6758 4.2188-10.129 4.2031-3.168 0-10.27 1.4609-15.777 3.2578-14.328 4.6797-23.578 6.0703-26.422 3.9688zm4.2031-13.219c-1.2578-3.2734 0.31641-4.0469 14.871-7.2891 7.8828-1.7578 16.672-4.7734 21.457-7.3672 9.9727-5.4062 21.488-7.4414 22.797-4.0312 1.1016 2.8711-1.5859 4.6172-7.1523 4.6445-2.3633 0.011719-8.0703 2.0625-12.684 4.5625-4.8398 2.6211-13.762 5.7578-21.078 7.4141-6.9766 1.5781-13.738 3.1836-15.027 3.5625-1.4141 0.42188-2.6758-0.17969-3.1836-1.4922zm263.91-5.0781c0-1.7969 0.84375-5.6602 1.875-8.5859 1.0312-2.9258 2.3086-9.3633 2.8398-14.309 0.67188-6.25 1.8359-10.004 3.8242-12.316l2.8594-3.3242 11.996 6.2578c6.5977 3.4414 12.473 6.5508 13.062 6.9023 0.58594 0.35547 0.39844 1.4492-0.42188 2.4375-1.2422 1.5-2.3828 1.4766-6.9297-0.12891-2.9922-1.0547-7.4727-3.1758-9.9609-4.7148-6.1562-3.8047-8.4375-2.6211-8.5391 4.4336-0.12891 8.7656-5.4492 25.625-8.2656 26.164-1.7109 0.32812-2.3359-0.42969-2.3359-2.8203zm-468.69-25.613c-0.73828-1.9453-1.3438-4.418-1.3438-5.5 0-1.082-2.7891-7.3008-6.1953-13.82-5.918-11.324-6.7734-16.129-2.8594-16.051 2.7656 0.046875 14.473 25.371 14.789 31.977 0.32031 6.7188-2.3438 8.7812-4.3906 3.3945zm16.301-3.0273c-4.1953-11.215-8.1289-27.684-8.8516-37.055-0.73438-9.5117-0.46875-11.434 2.3984-17.531 3.6406-7.7344 5.2422-9.2305 7.2695-6.7852 1.0078 1.2148 0.67188 3.3281-1.1836 7.4766-3.7617 8.4023-3.4453 22.066 0.82422 35.434 4.5781 14.34 5.6133 22.137 2.9414 22.137-1.1133 0-2.6406-1.6523-3.3945-3.6719zm191.32-6.1523c-3.6641-2.4648-10.453-5.8633-15.094-7.5547-8.1992-2.9883-9.3086-3.0508-40.148-2.2344l-31.715 0.83594-9.2578-5.4922c-15.891-9.4258-27.445-13.113-41.113-13.117-13.352 0-34.723-3.3828-39.25-6.207-4.9141-3.0625-3.6289-7.2031 6.0078-19.391 15.16-19.172 24.621-23.816 48.504-23.816 16.566 0 19.613 1.0391 33.047 11.266 11.484 8.7461 17.113 10.098 42.008 10.098h21.266l21.965 10.906c14.086 6.9961 23.188 12.359 25.379 14.965 3.1992 3.8047 3.3594 4.6523 2.4961 13.465-1.082 11.062-4.375 17.242-10.289 19.301-5.9141 2.0625-6.3984 1.957-13.805-3.0273zm11.367-2.8633c0-1.1016-0.60156-2.0039-1.3359-2.0039s-1.3359 0.90234-1.3359 2.0039 0.60156 2.0039 1.3359 2.0039 1.3359-0.90234 1.3359-2.0039zm8.3477-11.16c0.78516-3-1.3438-7.2266-3.0898-6.1484-0.6875 0.42578-1.2539 2.543-1.2539 4.7031 0 4.4102 3.2812 5.5039 4.3438 1.4453zm-104.49-38.914c0-0.73438-0.60156-1.3359-1.3359-1.3359-0.73437 0-1.3359 0.60156-1.3359 1.3359s0.60156 1.3359 1.3359 1.3359c0.73438 0 1.3359-0.60156 1.3359-1.3359zm-18.695-14.02c0-1.1016-0.56641-2.0039-1.2578-2.0039-1.6836 0-2.8906 2.0859-1.8242 3.1523 1.5039 1.5039 3.0781 0.91797 3.0781-1.1484zm-8.0117-1.7812c0-1.7383-1.5859-2.8945-2.8789-2.0977-1.3828 0.85156-0.19141 3.2109 1.6211 3.2109 0.69141 0 1.2578-0.5 1.2578-1.1133zm156.86 59.387c-1.4492-0.99609-4.793-2.207-7.4297-2.6914-5.5391-1.0156-11.281-6.3828-10.105-9.4492 1.0938-2.8477 3.9961-2.5938 6.8867 0.59766 1.3281 1.4688 3.9766 2.6875 5.8828 2.7109 1.9062 0.023438 5.1172 1.4961 7.1367 3.2734 6.0352 5.3125 4.043 9.9727-2.375 5.5508zm-326.87-32.434c-0.50391-0.50391-0.91797-3.7461-0.91797-7.2031 0-6.082 0.32031-6.5898 9.9727-15.758 5.4844-5.2109 13.145-11.074 17.023-13.031 3.8789-1.957 11.859-6.4336 17.734-9.9453 10.238-6.1211 12.656-7.1211 16.359-6.7695 3.3789 0.32031 1.5312 4.1836-2.8828 6.0312-2.5039 1.0469-7.9023 4.0469-12 6.6641-4.0977 2.6211-11.047 6.582-15.445 8.8008-4.3984 2.2227-11.715 7.5312-16.254 11.797-7.0391 6.6133-8.3711 8.6172-9.0469 13.574-0.75391 5.5352-2.5469 7.8398-4.5469 5.8398zm61.398-29.406c-0.48828-0.48828-0.89062-1.6914-0.89062-2.6719 0-1.3008 2.332-1.7812 8.6523-1.7812 9.6172 0 13.223-1.1562 35.414-11.375 15.004-6.9062 24.648-9.418 28.066-7.3047 3.4688 2.1445 0.20312 4.9258-6.7461 5.75-4.0391 0.48047-10.887 2.8594-16.328 5.6719-18.449 9.5469-27.578 12.586-37.82 12.594-5.2031 0-9.8594-0.39453-10.348-0.88672zm41.207-24.422c-1.5859-2.5664 4.4609-5.0859 24-10.004 30.895-7.7734 32.715-8 32.715-4.1016 0 2.1172-4.1523 3.5898-20.699 7.3281-6.6094 1.4961-16.223 3.8984-21.363 5.3438-10.574 2.9727-13.52 3.2617-14.652 1.4297z" fill="#0b0b0b"/>
</svg>
